<svg xmlns="http://www.w3.org/2000/svg" fill="none" viewBox="0 0 177 58"><rect width="176.57" height="58" x=".43" fill="#7156FD" fill-opacity=".2" rx="29"/><path fill="#fff" fill-rule="evenodd" d="m51.744 17.212.18 1.082c.14 1.006.206 2.022.195 3.038a28.044 28.044 0 0 1-.807 6.665 24.984 24.984 0 0 1-3.717 8.278c-2.004 2.882-4.901 5.717-9.124 7.994l-.517.279-.517-.279c-4.223-2.277-7.119-5.112-9.124-7.994a24.982 24.982 0 0 1-3.717-8.278 28.045 28.045 0 0 1-.807-6.664c-.01-1.016.055-2.032.196-3.038l.179-1.082a.68.68 0 0 0-1.066-.666.677.677 0 0 0-.273.444l-.18 1.082a21.533 21.533 0 0 0-.214 3.26c.001 2.356.285 4.704.846 6.992a26.342 26.342 0 0 0 3.924 8.729c2.115 3.044 5.183 6.037 9.598 8.413l.839.452a.676.676 0 0 0 .643 0l.838-.452c4.41-2.377 7.48-5.37 9.598-8.413a26.336 26.336 0 0 0 3.92-8.728c.562-2.288.846-4.636.847-6.992.011-1.09-.06-2.18-.215-3.26l-.178-1.082a.678.678 0 1 0-1.34.222l-.007-.002Z" clip-rule="evenodd"/><path fill="#fff" fill-rule="evenodd" d="m27.871 16.475 10.085-3.081 10.309 3.147a.681.681 0 0 0 .396-1.304L38.153 12.03a.676.676 0 0 0-.395 0l-10.284 3.139a.68.68 0 1 0 .396 1.303l.001.003Z" clip-rule="evenodd"/><path fill="#fff" fill-rule="evenodd" d="m22.892 17.41 14.457 28.218a.677.677 0 0 0 1.202.01l8.816-16.488.014-.027 5.643-11.731a.68.68 0 0 0-1.223-.593l-5.634 11.722-8.193 15.334L24.1 16.79a.677.677 0 0 0-1.284.363.68.68 0 0 0 .076.255v.003Z" clip-rule="evenodd"/><path fill="#fff" fill-rule="evenodd" d="M29.812 29.977H45.89a.678.678 0 1 0 0-1.357H29.812a.678.678 0 1 0 0 1.357Z" clip-rule="evenodd"/><path fill="#fff" d="M109.937 32.263v3.32a1.88 1.88 0 0 1-1.888 1.889h-1.731l3.557 4.219h-1.684l-3.542-4.218h-4.159a6.029 6.029 0 0 1-.615-.063v4.28h-1.28V30.375h9.444a1.88 1.88 0 0 1 1.889 1.889h.009Zm-9.443 3.92h7.555a.588.588 0 0 0 .598-.6v-3.32a.604.604 0 0 0-.173-.433.565.565 0 0 0-.426-.181h-7.555a.618.618 0 0 0-.614.614v3.32a.564.564 0 0 0 .181.428.603.603 0 0 0 .434.171Z"/><path fill="#fff" fill-rule="evenodd" d="M116.706 30.358h11.329v1.28h-5.013v10.058h-1.28V31.638h-5.036v-1.28Zm18.195 11.332V30.358h1.28V41.69h-1.28Zm18.289-11.332h1.638l-4.738 5.666 4.753 5.666h-1.653l-4.218-5.02h-3.651v5.02h-1.289V30.358h1.291v5.02h3.652l4.215-5.02Z" clip-rule="evenodd"/><path fill="#fff" d="M73.595 31.633h-9.413a.618.618 0 0 0-.614.615v7.555a.618.618 0 0 0 .614.614h9.413v1.28h-9.413a1.882 1.882 0 0 1-1.889-1.889v-7.555a1.879 1.879 0 0 1 1.889-1.889h9.413v1.27Zm17.675-1.275v1.28h-9.065v3.74h7.286v1.29h-7.287v3.747h9.065v1.28H80.924V30.358H91.27Zm-15.702-9.801 2.56-5.6h.584l2.56 5.6h-.624l-2.352-5.256h.24l-2.352 5.256h-.616Zm1.008-1.496.176-.48h3.256l.176.48h-3.608Zm9.922 1.544c-.715 0-1.278-.205-1.688-.616-.411-.41-.616-1.018-.616-1.824v-3.208h.592v3.184c0 .662.149 1.15.448 1.464.298.315.72.472 1.264.472.549 0 .973-.157 1.272-.472.298-.314.448-.803.448-1.464v-3.184h.576v3.208c0 .806-.206 1.413-.616 1.824-.406.41-.966.616-1.68.616Zm6.24-.048v-5.6h2.28c.597 0 1.12.12 1.567.36a2.58 2.58 0 0 1 1.056.984c.251.422.376.907.376 1.456 0 .55-.125 1.035-.376 1.456-.25.421-.602.752-1.056.992-.447.235-.97.352-1.567.352h-2.28Zm.591-.512h1.657c.495 0 .925-.096 1.287-.288.368-.197.654-.466.856-.808.203-.347.304-.744.304-1.192 0-.453-.1-.85-.304-1.192a2.103 2.103 0 0 0-.856-.8c-.362-.197-.791-.296-1.287-.296h-1.657v4.576Zm8.178.512v-5.6h.592v5.6h-.592Zm5.662 0V15.47h-1.968v-.512h4.528v.512h-1.968v5.088h-.592Zm6.194-3.096h2.96v.504h-2.96v-.504Zm.064 2.584h3.368v.512h-3.96v-5.6h3.84v.512h-3.248v4.576Zm6.919.512v-5.6h2.28c.598 0 1.12.12 1.568.36.454.235.806.563 1.056.984.251.422.376.907.376 1.456 0 .55-.125 1.035-.376 1.456-.25.421-.602.752-1.056.992-.448.235-.97.352-1.568.352h-2.28Zm.592-.512h1.656c.496 0 .926-.096 1.288-.288.368-.197.654-.466.856-.808.203-.347.304-.744.304-1.192 0-.453-.101-.85-.304-1.192a2.099 2.099 0 0 0-.856-.8c-.362-.197-.792-.296-1.288-.296h-1.656v4.576Zm12.431.512v-5.6h2.416c.624 0 1.107.125 1.448.376.347.25.52.605.52 1.064 0 .304-.072.56-.216.768-.138.208-.33.366-.576.472-.24.107-.504.16-.792.16l.136-.192c.358 0 .664.056.92.168.262.107.464.27.608.488.144.213.216.48.216.8 0 .475-.176.843-.528 1.104-.346.262-.872.392-1.576.392h-2.576Zm.592-.488h1.976c.491 0 .867-.082 1.128-.248.262-.17.392-.44.392-.808 0-.363-.13-.627-.392-.792-.261-.17-.637-.256-1.128-.256h-2.04v-.488h1.848c.448 0 .795-.085 1.04-.256.251-.17.376-.424.376-.76 0-.341-.125-.594-.376-.76-.245-.17-.592-.256-1.04-.256h-1.784v4.624Zm8.818.488v-2.08l.136.368-2.376-3.888h.632l2.088 3.416h-.336l2.088-3.416h.592l-2.376 3.888.136-.368v2.08h-.584Z"/><path fill="#7156FB" d="m65.888 13.889 3.45.862c.192.049.329.24.329.461v4.718c0 .947-.421 1.833-1.122 2.358l-2.657 1.993-2.657-1.993c-.701-.526-1.122-1.41-1.122-2.358v-4.718c0-.221.137-.412.329-.46l3.45-.863Z"/><path stroke="#fff" stroke-width="1.337" d="m63.997 18.762 1.546 1.457 2.705-2.55"/></svg>