<svg xmlns="http://www.w3.org/2000/svg" fill="none" viewBox="0 0 34 28"><path fill="#01FFC2" d="M32.799 3.754c-2.087.736-2.345.642-1.348-.48a7.077 7.077 0 0 0 1.7-2.663c0-.082-.364 0-.786.268a13.4 13.4 0 0 1-2.157.842l-1.324.42-1.173-.818A10.02 10.02 0 0 0 25.625.237a8.361 8.361 0 0 0-4.302.093 7.1 7.1 0 0 0-3.597 2.76 7.063 7.063 0 0 0-1.186 4.367l.07 1.169-1.172-.14a19.953 19.953 0 0 1-11.722-5.75l-1.63-1.612-.41 1.168A7.117 7.117 0 0 0 3.2 9.62c.985 1.04.762 1.168-.938.572-.586-.198-1.101-.35-1.172-.268a8.677 8.677 0 0 0 .88 3.306 8.053 8.053 0 0 0 3.364 3.178l1.172.56h-1.43c-1.372 0-1.419 0-1.278.55a7.444 7.444 0 0 0 1.858 2.526 7.473 7.473 0 0 0 2.737 1.54l1.524.514-1.325.794a14.1 14.1 0 0 1-6.588 1.835A6.82 6.82 0 0 0 0 24.924a18.89 18.89 0 0 0 4.689 2.174 20.801 20.801 0 0 0 16.165-1.718 21.564 21.564 0 0 0 8.205-9.604 25.18 25.18 0 0 0 1.677-7.42c0-1.167.07-1.296 1.441-2.651A15.208 15.208 0 0 0 33.901 3.8c.21-.467.187-.467-1.102-.046Z"/></svg>