<svg xmlns="http://www.w3.org/2000/svg" fill="none" viewBox="0 0 37 28"><path fill="#01FFC2" d="M31.322 2.321a30.674 30.674 0 0 0-7.531-2.32.115.115 0 0 0-.121.058 21.026 21.026 0 0 0-.938 1.912 28.37 28.37 0 0 0-8.459 0A19.288 19.288 0 0 0 13.321.06.12.12 0 0 0 13.2.002 30.587 30.587 0 0 0 5.669 2.32a.107.107 0 0 0-.05.042C.822 9.478-.491 16.418.153 23.273a.126.126 0 0 0 .048.085 30.77 30.77 0 0 0 9.24 4.637.12.12 0 0 0 .129-.042 21.739 21.739 0 0 0 1.89-3.053.116.116 0 0 0-.064-.162 20.276 20.276 0 0 1-2.886-1.365.117.117 0 0 1-.012-.196c.194-.144.388-.294.573-.446a.115.115 0 0 1 .12-.016c6.055 2.745 12.61 2.745 18.594 0a.115.115 0 0 1 .121.015c.186.151.38.303.575.447a.117.117 0 0 1-.01.196c-.922.535-1.88.986-2.888 1.364a.117.117 0 0 0-.063.163 24.427 24.427 0 0 0 1.89 3.051c.028.041.08.058.129.044a30.667 30.667 0 0 0 9.253-4.637.117.117 0 0 0 .049-.085c.771-7.923-1.293-14.806-5.47-20.908a.094.094 0 0 0-.049-.044ZM12.364 19.099c-1.823 0-3.325-1.662-3.325-3.703 0-2.04 1.473-3.702 3.325-3.702 1.867 0 3.354 1.676 3.325 3.702 0 2.041-1.473 3.703-3.325 3.703Zm12.295 0c-1.823 0-3.326-1.662-3.326-3.703 0-2.04 1.473-3.702 3.326-3.702 1.866 0 3.354 1.676 3.325 3.702 0 2.041-1.459 3.703-3.325 3.703Z"/></svg>