<svg xmlns="http://www.w3.org/2000/svg" fill="none" viewBox="0 0 30 30">
  <path fill="#01FFC2" fill-rule="evenodd" d="M24.807 6.993a1.8 1.8 0 1 1-3.6 0 1.8 1.8 0 0 1 3.6 0ZM15 20a5 5 0 1 1 0-10 5 5 0 0 1 0 10Zm0-12.703a7.703 7.703 0 1 0 0 15.406 7.703 7.703 0 0 0 0-15.406Zm0-4.594c4.005 0 4.48.015 6.061.087 1.463.067 2.257.311 2.785.517.7.272 1.2.597 1.725 1.122.525.525.85 1.024 1.122 1.725.206.528.45 1.323.517 2.785.072 1.582.087 2.056.087 6.062 0 4.005-.015 4.48-.087 6.06-.067 1.463-.311 2.257-.517 2.786-.272.7-.597 1.2-1.122 1.725a4.644 4.644 0 0 1-1.725 1.122c-.528.205-1.322.45-2.785.517-1.581.072-2.056.087-6.061.087s-4.48-.015-6.061-.087c-1.463-.067-2.257-.311-2.786-.517-.7-.272-1.2-.597-1.724-1.122a4.647 4.647 0 0 1-1.123-1.725c-.205-.529-.45-1.323-.516-2.785-.072-1.582-.088-2.056-.088-6.062 0-4.005.016-4.48.088-6.06.067-1.463.31-2.258.516-2.786.272-.7.598-1.2 1.123-1.725a4.644 4.644 0 0 1 1.724-1.122c.529-.206 1.323-.45 2.786-.517 1.581-.072 2.056-.087 6.061-.087ZM15 0c-4.074 0-4.585.017-6.184.09-1.597.073-2.688.327-3.641.697a7.35 7.35 0 0 0-2.657 1.73 7.35 7.35 0 0 0-1.73 2.658C.417 6.129.163 7.219.09 8.815.017 10.416 0 10.927 0 15s.017 4.585.09 6.184c.073 1.597.327 2.687.697 3.642a7.35 7.35 0 0 0 1.73 2.656 7.353 7.353 0 0 0 2.658 1.73c.954.371 2.044.625 3.64.698 1.6.073 2.111.09 6.185.09s4.585-.017 6.184-.09c1.597-.073 2.687-.327 3.642-.698a7.353 7.353 0 0 0 2.656-1.73 7.353 7.353 0 0 0 1.73-2.656c.371-.955.625-2.045.698-3.642.073-1.6.09-2.11.09-6.184s-.017-4.585-.09-6.184c-.073-1.597-.327-2.687-.698-3.641a7.353 7.353 0 0 0-1.73-2.657 7.353 7.353 0 0 0-2.656-1.73C23.87.417 22.78.163 21.184.09 19.584.017 19.075 0 15 0Z" clip-rule="evenodd"/>
</svg>