<svg xmlns="http://www.w3.org/2000/svg" xmlns:xlink="http://www.w3.org/1999/xlink"><symbol id="icon-blank"/><symbol id="icon-arrows" viewBox="0 0 36 18"><g fill="none"><path fill="#7156FB" d="M29.52 0H36l-5.514 9.004L36 18h-6.48L24 9.004 29.52 0Z"/><path fill="#7156FB" fill-opacity=".7" d="M17.514 0H24l-5.52 9.004L24 18h-6.486L12 9.004 17.514 0Z"/><path fill="#7156FB" fill-opacity=".3" d="M5.514 0H12L6.486 9.004 12 18H5.514L0 9.004 5.514 0Z"/></g></symbol><symbol id="icon-dashed-border" viewBox="0 0 250 1"><g fill="none"><path stroke="currentColor" stroke-dasharray="2 2" d="M0 .5h250"/></g></symbol><symbol id="icon-discord" viewBox="0 0 37 28"><g fill="none"><path fill="#01FFC2" d="M31.322 2.321a30.674 30.674 0 0 0-7.531-2.32.115.115 0 0 0-.121.058 21.026 21.026 0 0 0-.938 1.912 28.37 28.37 0 0 0-8.459 0A19.288 19.288 0 0 0 13.321.06.12.12 0 0 0 13.2.002 30.587 30.587 0 0 0 5.669 2.32a.107.107 0 0 0-.05.042C.822 9.478-.491 16.418.153 23.273a.126.126 0 0 0 .048.085 30.77 30.77 0 0 0 9.24 4.637.12.12 0 0 0 .129-.042 21.739 21.739 0 0 0 1.89-3.053.116.116 0 0 0-.064-.162 20.276 20.276 0 0 1-2.886-1.365.117.117 0 0 1-.012-.196c.194-.144.388-.294.573-.446a.115.115 0 0 1 .12-.016c6.055 2.745 12.61 2.745 18.594 0a.115.115 0 0 1 .121.015c.186.151.38.303.575.447a.117.117 0 0 1-.01.196c-.922.535-1.88.986-2.888 1.364a.117.117 0 0 0-.063.163 24.427 24.427 0 0 0 1.89 3.051c.028.041.08.058.129.044a30.667 30.667 0 0 0 9.253-4.637.117.117 0 0 0 .049-.085c.771-7.923-1.293-14.806-5.47-20.908a.094.094 0 0 0-.049-.044ZM12.364 19.099c-1.823 0-3.325-1.662-3.325-3.703 0-2.04 1.473-3.702 3.325-3.702 1.867 0 3.354 1.676 3.325 3.702 0 2.041-1.473 3.703-3.325 3.703Zm12.295 0c-1.823 0-3.326-1.662-3.326-3.703 0-2.04 1.473-3.702 3.326-3.702 1.866 0 3.354 1.676 3.325 3.702 0 2.041-1.459 3.703-3.325 3.703Z"/></g></symbol><symbol id="icon-facebook" viewBox="0 0 14 29"><g fill="none"><path fill="#01FFC2" d="M2.962 28.346c.006-.091.006-.182 0-.273V14.137H.1V9.283H3.02V5.648a6.79 6.79 0 0 1 .946-3.41A4.235 4.235 0 0 1 6.534.343 8.272 8.272 0 0 1 8.462 0h4.73v4.855H10.26c-.184.009-.366.037-.544.082a1.076 1.076 0 0 0-.852 1.078v3.232h4.388l-.52 4.89H8.817V28.37l-5.855-.023Z"/></g></symbol><symbol id="icon-google-play" viewBox="0 0 30 32"><g fill="none"><path fill="#01FFC2" d="M21.9 9.52 4.857.396A3.257 3.257 0 0 0 2.178.2L16.7 14.72l5.2-5.2ZM28.258 12.923l-4.91-2.628-5.537 5.537 5.537 5.537 4.91-2.63c2.323-1.242 2.323-4.573 0-5.816ZM.85 1.09A3.255 3.255 0 0 0 0 3.304V28.36c0 .876.328 1.64.849 2.212l14.74-14.74L.85 1.09ZM2.178 31.465a3.257 3.257 0 0 0 2.678-.196L21.9 22.144 16.7 16.943 2.178 31.465Z"/></g></symbol><symbol id="icon-instagram" viewBox="0 0 30 30"><g fill="none"><path fill="#01FFC2" fill-rule="evenodd" d="M24.807 6.993a1.8 1.8 0 1 1-3.6 0 1.8 1.8 0 0 1 3.6 0ZM15 20a5 5 0 1 1 0-10 5 5 0 0 1 0 10Zm0-12.703a7.703 7.703 0 1 0 0 15.406 7.703 7.703 0 0 0 0-15.406Zm0-4.594c4.005 0 4.48.015 6.061.087 1.463.067 2.257.311 2.785.517.7.272 1.2.597 1.725 1.122.525.525.85 1.024 1.122 1.725.206.528.45 1.323.517 2.785.072 1.582.087 2.056.087 6.062 0 4.005-.015 4.48-.087 6.06-.067 1.463-.311 2.257-.517 2.786-.272.7-.597 1.2-1.122 1.725a4.644 4.644 0 0 1-1.725 1.122c-.528.205-1.322.45-2.785.517-1.581.072-2.056.087-6.061.087s-4.48-.015-6.061-.087c-1.463-.067-2.257-.311-2.786-.517-.7-.272-1.2-.597-1.724-1.122a4.647 4.647 0 0 1-1.123-1.725c-.205-.529-.45-1.323-.516-2.785-.072-1.582-.088-2.056-.088-6.062 0-4.005.016-4.48.088-6.06.067-1.463.31-2.258.516-2.786.272-.7.598-1.2 1.123-1.725a4.644 4.644 0 0 1 1.724-1.122c.529-.206 1.323-.45 2.786-.517 1.581-.072 2.056-.087 6.061-.087ZM15 0c-4.074 0-4.585.017-6.184.09-1.597.073-2.688.327-3.641.697a7.35 7.35 0 0 0-2.657 1.73 7.35 7.35 0 0 0-1.73 2.658C.417 6.129.163 7.219.09 8.815.017 10.416 0 10.927 0 15s.017 4.585.09 6.184c.073 1.597.327 2.687.697 3.642a7.35 7.35 0 0 0 1.73 2.656 7.353 7.353 0 0 0 2.658 1.73c.954.371 2.044.625 3.64.698 1.6.073 2.111.09 6.185.09s4.585-.017 6.184-.09c1.597-.073 2.687-.327 3.642-.698a7.353 7.353 0 0 0 2.656-1.73 7.353 7.353 0 0 0 1.73-2.656c.371-.955.625-2.045.698-3.642.073-1.6.09-2.11.09-6.184s-.017-4.585-.09-6.184c-.073-1.597-.327-2.687-.698-3.641a7.353 7.353 0 0 0-1.73-2.657 7.353 7.353 0 0 0-2.656-1.73C23.87.417 22.78.163 21.184.09 19.584.017 19.075 0 15 0Z" clip-rule="evenodd"/></g></symbol><symbol id="icon-medium" viewBox="0 0 37 20"><g fill="none"><path fill="#01FFC2" d="M20.427 9.98c0 5.512-4.532 9.98-10.122 9.98S.183 15.493.183 9.98C.183 4.47 4.715 0 10.305 0s10.122 4.469 10.122 9.98ZM31.53 9.98c0 5.19-2.265 9.397-5.06 9.397-2.796 0-5.062-4.208-5.062-9.396 0-5.188 2.266-9.396 5.061-9.396 2.796 0 5.061 4.206 5.061 9.396M36.074 9.981c0 4.647-.797 8.417-1.78 8.417-.984 0-1.78-3.769-1.78-8.417s.797-8.417 1.78-8.417c.982 0 1.78 3.768 1.78 8.417Z"/></g></symbol><symbol id="icon-telegram" viewBox="0 0 32 28"><g fill="none"><path fill="#01FFC2" d="m1.141 14.024 7.07 2.306 2.702 8.652c.327.947.163 1.323 1.12 1.323.736 0 1.063-.35 1.473-.768.26-.267 1.807-1.835 3.534-3.587l7.354 5.669c1.353.779 2.33.375 2.668-1.311L31.89 2.576c.49-2.067-.756-3.004-2.047-2.39L1.494 11.588c-1.935.809-1.923 1.934-.353 2.436ZM25.256 5.31c.796-.503 1.525-.232.927.322L12.537 18.474l-.531 5.912-2.685-8.588L25.256 5.309Z"/></g></symbol><symbol id="icon-twitter" viewBox="0 0 34 28"><g fill="none"><path fill="#01FFC2" d="M32.799 3.754c-2.087.736-2.345.642-1.348-.48a7.077 7.077 0 0 0 1.7-2.663c0-.082-.364 0-.786.268a13.4 13.4 0 0 1-2.157.842l-1.324.42-1.173-.818A10.02 10.02 0 0 0 25.625.237a8.361 8.361 0 0 0-4.302.093 7.1 7.1 0 0 0-3.597 2.76 7.063 7.063 0 0 0-1.186 4.367l.07 1.169-1.172-.14A19.953 19.953 0 0 1 3.716 2.736l-1.63-1.612-.41 1.168A7.117 7.117 0 0 0 3.2 9.62c.985 1.04.762 1.168-.938.572-.586-.198-1.101-.35-1.172-.268.071 1.149.37 2.273.88 3.306a8.053 8.053 0 0 0 3.364 3.178l1.172.56h-1.43c-1.372 0-1.419 0-1.278.55a7.444 7.444 0 0 0 1.858 2.526 7.473 7.473 0 0 0 2.737 1.54l1.524.514-1.325.794a14.1 14.1 0 0 1-6.588 1.835A6.82 6.82 0 0 0 0 24.924a18.89 18.89 0 0 0 4.689 2.174 20.801 20.801 0 0 0 16.165-1.718 21.564 21.564 0 0 0 8.205-9.604 25.18 25.18 0 0 0 1.677-7.42c0-1.167.07-1.296 1.441-2.651A15.208 15.208 0 0 0 33.901 3.8c.21-.467.187-.467-1.102-.046Z"/></g></symbol></svg>